<svg id="图层_1" data-name="图层 1" xmlns="http://www.w3.org/2000/svg" viewBox="0 0 352.86 135.97"><defs><style>.cls-1{fill:#fbbedf;}.cls-2{fill:#fca3cc;}.cls-3{fill:#fdcfdf;}.cls-4{fill:#bce6eb;}</style></defs><path class="cls-1" d="M69,156c-35.66-.33-48.66-22.74-49.89-25C2.59,102.85,9.51,61.13,9.81,59.37c2.11-11,6.92-19,14.31-23.79A28.55,28.55,0,0,1,39.38,31.1c.89,0,1.53,0,1.86.08,3.22.17,25,2.31,25,29,0,2.73,0,5.41-.07,8-.09,7.06-.23,17.46,1.24,20.48,1.75-3.37,1.38-15.76,1.14-24.15q-.06-2.07-.12-4.2c-.23-8.6,2.11-15.47,6.93-20.42,6.92-7.11,16.67-7.66,19.49-7.66h.52c.71,0,1.42-.06,2.11-.06,18.78,0,26.82,14,28.45,21.39,7.25,32.37-1.44,62.8-2,64.63a53.91,53.91,0,0,1-10.68,19c-7.4,8.59-21,18.82-43.72,18.82Z" transform="translate(-3.14 -25.06)"/><path class="cls-2" d="M39.38,36.1a12.68,12.68,0,0,1,1.47.07s20.4,0,20.4,24c0,18-1.58,33.86,6.18,33.86,7.59,0,6.48-15.82,6-33.86-.58-21.91,17.91-23,21.42-23h.57c.7,0,1.39-.06,2.06-.06,19.72,0,23.57,17.47,23.57,17.47,7.12,31.79-1.9,62.17-1.9,62.17S109.91,151,69.56,151H69c-34.18-.31-45.57-22.46-45.57-22.46-15.82-26.9-8.7-68.35-8.7-68.35C19,37.89,34.52,36.1,39.38,36.1m0-10h0c-13.69,0-29.93,8.47-34.46,32.24l0,.09v.09c-.32,1.84-7.52,45.28,9.86,75,1.91,3.43,16.48,27.17,54.16,27.52h.65c24.63,0,39.43-11.18,47.51-20.56a58.46,58.46,0,0,0,11.7-20.86c.69-2.37,9.51-33.76,2-67.11-1.92-8.72-11.37-25.28-33.32-25.28-.72,0-1.45,0-2.18.05h-.45c-3.32,0-14.78.66-23.07,9.17a27.35,27.35,0,0,0-4.45,6.07A29.51,29.51,0,0,0,56.13,30.56a32.1,32.1,0,0,0-14.71-4.38c-.48,0-1.18-.08-2-.08Z" transform="translate(-3.14 -25.06)"/><path class="cls-3" d="M254,154.6a30.1,30.1,0,0,1-22.15-9.16c-6.46-6.59-10.09-15.77-12.13-24.22-.33.38-.68.74-1,1.09a16.29,16.29,0,0,1-11.22,4.79c-.37,0-.68,0-.92,0a18.74,18.74,0,0,1-14.09-6.26C190.21,132,186,140.62,179.9,146.57c-7.84,7.64-16.07,8-17.63,8h-.11c-10.38,0-18.68-3.26-24.66-9.65-10.14-10.83-9.68-26.84-9.57-28.87,0-34.16,11.3-58.09,12.33-60.19,4.39-10,10.8-17.22,19.07-21.51a36.17,36.17,0,0,1,16.39-4.09c.95,0,1.67.05,2.07.09,15.6.09,24.4,8.7,29,18.68.17-.34.34-.68.52-1,6.3-11.77,16.14-18,28.48-18,23.62,0,34.84,26.16,35.3,27.27,11.43,26.17,11.77,55.53,11.78,57.83.54,13.73-2.57,24.21-9.24,31.15a27.24,27.24,0,0,1-19.17,8.29Z" transform="translate(-3.14 -25.06)"/><path class="cls-2" d="M235.76,35.06c20.57,0,30.69,24.2,30.69,24.2,11.39,26.11,11.39,56,11.39,56,1.33,33.23-20.5,34.33-23.41,34.33h-.32c-32.91,0-32-50.31-32-50.31-1.64,21.39-12,22.81-14.68,22.81a5.9,5.9,0,0,1-.66,0c-16.46,0-17.4-23.1-17.4-23.1,0,49.88-25.61,50.63-27.14,50.63h-.08c-31.48,0-29.26-33.38-29.26-33.38,0-34.33,11.86-58.22,11.86-58.22,9.14-20.88,25.48-22.71,30.93-22.71a17,17,0,0,1,1.82.08c27.84,0,28.48,31,28.48,33.7.47-4.43,4.74-34,29.74-34m0-10a35.37,35.37,0,0,0-28.89,14.39c-6.7-9-16.68-13.94-28.84-14.07-.55-.05-1.33-.09-2.31-.09-6.45,0-28.33,2.06-40,28.51-1.38,2.88-12.72,27.49-12.78,62.13-.17,3.3-.4,20.34,10.92,32.43,4.78,5.12,13.57,11.21,28.26,11.24h.16c1.9,0,11.89-.46,21.12-9.45,5.35-5.21,9.38-12.17,12.05-20.81a24.15,24.15,0,0,0,10.89,2.73c.32,0,.71,0,1.14,0a21.13,21.13,0,0,0,9.48-2.43c2.4,6.92,6,13.81,11.34,19.27a35.35,35.35,0,0,0,25.64,10.66h.5a32.38,32.38,0,0,0,22.78-9.83c7.62-7.94,11.2-19.62,10.63-34.72,0-3.06-.52-32.94-12.2-59.74-.94-2.2-13.46-30.25-39.88-30.25Z" transform="translate(-3.14 -25.06)"/><path class="cls-4" d="M318.32,155.07c-24.24-.29-32-24.87-32.8-38-2.48-17.23-.78-42.82-.64-44.89.47-13.84,8-39.88,33.44-40,.3,0,26.81.41,31.1,35.24a244.86,244.86,0,0,1,0,55.91c-1,11.08-8.7,31.81-30.87,31.81Z" transform="translate(-3.14 -25.06)"/><path class="cls-2" d="M318.35,37.11s22.31,0,26.1,30.85a241.26,241.26,0,0,1,0,54.74s-2.36,27.37-25.9,27.37h-.2c-26.1-.31-27.85-33.54-27.85-33.54-2.53-17.24-.63-44.14-.63-44.14S291,37.27,318.35,37.11m0-10h-.06c-15.29.09-27.24,8.55-33.66,23.83a64.83,64.83,0,0,0-4.74,20.92c-.18,2.54-1.83,28.15.66,45.72a62.82,62.82,0,0,0,4.95,19.66c6.44,14.54,18.07,22.65,32.73,22.83h.32c13.42,0,24.31-6.78,30.66-19.09a51.13,51.13,0,0,0,5.18-17.13,250.77,250.77,0,0,0,0-57.06c-2.44-19.85-11.69-29.58-19-34.25a33.41,33.41,0,0,0-17-5.43Z" transform="translate(-3.14 -25.06)"/></svg>