<svg id="图层_1" data-name="图层 1" xmlns="http://www.w3.org/2000/svg" viewBox="0 0 166.74 179.37"><defs><style>.cls-1{fill:#fca3cc;}.cls-1,.cls-2,.cls-3,.cls-4{stroke:#fca3cc;stroke-miterlimit:10;stroke-width:10px;}.cls-2{fill:#fdcfdf;}.cls-3{fill:#bce6eb;}.cls-4{fill:#fbbedf;}</style></defs><path class="cls-1" d="M112.46,174.38a4.58,4.58,0,0,1-1.17-9l23.9-6.37a53.56,53.56,0,0,0,39.9-53.64l-.4-12.74a4.58,4.58,0,0,1,9.15-.29l.4,12.74a62.94,62.94,0,0,1-46.69,62.77l-23.9,6.37A4.48,4.48,0,0,1,112.46,174.38Z" transform="translate(-96.88 -0.01)"/><path class="cls-2" d="M181,77.24a4.56,4.56,0,0,1-3.23-1.34c-4.25-4.24-8.47-8-12.56-11.68-12.24-10.94-22.9-20.48-24-34.48S150.69,4.38,164.65,5a20.31,20.31,0,0,1,16.22,8.7.17.17,0,0,0,.27,0A20.33,20.33,0,0,1,197.38,5c14-.65,24.59,10.76,23.47,24.68s-11.8,23.56-24.06,34.52c-4.08,3.65-8.31,7.42-12.55,11.66A4.6,4.6,0,0,1,181,77.24Z" transform="translate(-96.88 -0.01)"/><path class="cls-3" d="M183.37,82.25a4.58,4.58,0,0,1,2.29-2.65c5.36-2.69,10.27-5.52,15-8.25,14.23-8.19,26.63-15.32,40.28-12s21.09,17,16.09,30a20.35,20.35,0,0,1-13.35,12.67.17.17,0,0,0-.09.26,20.33,20.33,0,0,1,3.16,18.15c-3.76,13.45-17.93,20-30.8,14.53s-18.67-18.6-25.22-33.68c-2.18-5-4.44-10.22-7.13-15.58A4.53,4.53,0,0,1,183.37,82.25Z" transform="translate(-96.88 -0.01)"/><path class="cls-4" d="M176.58,84.29a4.61,4.61,0,0,1-.69,3.43c-3.34,5-6.23,9.86-9,14.58-8.37,14.12-15.66,26.43-29.18,30.25S111,128.13,108.9,114.31a20.36,20.36,0,0,1,5.4-17.6.17.17,0,0,0,0-.26A20.36,20.36,0,0,1,102.57,82.2c-3.34-13.57,5.8-26.21,19.67-27.81s25.4,7,38.52,16.93c4.38,3.3,8.9,6.71,13.88,10.05A4.59,4.59,0,0,1,176.58,84.29Z" transform="translate(-96.88 -0.01)"/></svg>